<mxfile host="app.diagrams.net" modified="2024-07-19T02:58:33.225Z" agent="Mozilla/5.0 (Windows NT 10.0; Win64; x64) AppleWebKit/537.36 (KHTML, like Gecko) Chrome/126.0.0.0 Safari/537.36 Edg/126.0.0.0" etag="Owz4HGlfYcytvev81tcw" version="24.7.1" type="github">
  <diagram name="第 1 页" id="oXnixAA93GfRqGJTgy4R">
    <mxGraphModel dx="2026" dy="1145" grid="1" gridSize="10" guides="1" tooltips="1" connect="1" arrows="1" fold="1" page="1" pageScale="1" pageWidth="827" pageHeight="1169" math="0" shadow="0">
      <root>
        <mxCell id="0" />
        <mxCell id="1" parent="0" />
        <mxCell id="UMj_73BemHP42ggLhkep-40" value="" style="rounded=0;whiteSpace=wrap;html=1;fillColor=#f5f5f5;fontColor=#333333;strokeColor=#666666;" vertex="1" parent="1">
          <mxGeometry x="20" y="250" width="610" height="720" as="geometry" />
        </mxCell>
        <mxCell id="UMj_73BemHP42ggLhkep-37" value="" style="rounded=0;whiteSpace=wrap;html=1;fillStyle=auto;dashed=1;dashPattern=8 8;fillColor=#b0e3e6;strokeColor=#0e8088;" vertex="1" parent="1">
          <mxGeometry x="40" y="320" width="570" height="230" as="geometry" />
        </mxCell>
        <mxCell id="UMj_73BemHP42ggLhkep-11" value="" style="rounded=0;whiteSpace=wrap;html=1;fillStyle=auto;dashed=1;dashPattern=8 8;fillColor=#bac8d3;strokeColor=#23445d;" vertex="1" parent="1">
          <mxGeometry x="40" y="856" width="570" height="90" as="geometry" />
        </mxCell>
        <mxCell id="UMj_73BemHP42ggLhkep-10" value="" style="rounded=0;whiteSpace=wrap;html=1;fillStyle=dashed;dashed=1;dashPattern=8 8;fillColor=#f5f5f5;gradientColor=#b3b3b3;strokeColor=#666666;" vertex="1" parent="1">
          <mxGeometry x="40" y="704" width="570" height="100" as="geometry" />
        </mxCell>
        <mxCell id="UMj_73BemHP42ggLhkep-9" value="" style="rounded=0;whiteSpace=wrap;html=1;fillStyle=auto;dashed=1;dashPattern=8 8;fillColor=#e3c800;strokeColor=#B09500;fontColor=#000000;" vertex="1" parent="1">
          <mxGeometry x="40" y="570" width="570" height="90" as="geometry" />
        </mxCell>
        <mxCell id="UMj_73BemHP42ggLhkep-1" value="&lt;font style=&quot;font-size: 17px;&quot;&gt;UI 交互（QT）&lt;/font&gt;" style="rounded=1;whiteSpace=wrap;html=1;fillColor=#d5e8d4;strokeColor=#82b366;" vertex="1" parent="1">
          <mxGeometry x="239" y="349" width="180" height="70" as="geometry" />
        </mxCell>
        <mxCell id="UMj_73BemHP42ggLhkep-2" value="&lt;font style=&quot;font-size: 17px;&quot;&gt;图形渲染（VTK）&lt;/font&gt;" style="rounded=1;whiteSpace=wrap;html=1;fillColor=#e1d5e7;strokeColor=#9673a6;" vertex="1" parent="1">
          <mxGeometry x="460" y="442" width="120" height="60" as="geometry" />
        </mxCell>
        <mxCell id="UMj_73BemHP42ggLhkep-3" value="脚本录制" style="rounded=1;whiteSpace=wrap;html=1;fillColor=#d5e8d4;strokeColor=#82b366;gradientColor=#97d077;" vertex="1" parent="1">
          <mxGeometry x="320" y="724" width="120" height="60" as="geometry" />
        </mxCell>
        <mxCell id="UMj_73BemHP42ggLhkep-4" value="数据存储" style="rounded=1;whiteSpace=wrap;html=1;fillColor=#fff2cc;strokeColor=#d6b656;" vertex="1" parent="1">
          <mxGeometry x="170" y="724" width="120" height="60" as="geometry" />
        </mxCell>
        <mxCell id="UMj_73BemHP42ggLhkep-5" value="文件" style="rounded=1;whiteSpace=wrap;html=1;fillColor=#fff2cc;gradientColor=#ffd966;strokeColor=#d6b656;" vertex="1" parent="1">
          <mxGeometry x="276" y="866" width="120" height="60" as="geometry" />
        </mxCell>
        <mxCell id="UMj_73BemHP42ggLhkep-6" value="日志" style="rounded=1;whiteSpace=wrap;html=1;fillColor=#f8cecc;strokeColor=#b85450;" vertex="1" parent="1">
          <mxGeometry x="460" y="724" width="120" height="60" as="geometry" />
        </mxCell>
        <mxCell id="UMj_73BemHP42ggLhkep-7" value="&lt;font style=&quot;font-size: 17px;&quot;&gt;几何建模&amp;nbsp;&lt;/font&gt;&lt;div style=&quot;font-size: 17px;&quot;&gt;&lt;font style=&quot;font-size: 17px;&quot;&gt;（Poisson / Parasolid）&lt;/font&gt;&lt;/div&gt;" style="rounded=1;whiteSpace=wrap;html=1;fillColor=#b1ddf0;strokeColor=#10739e;" vertex="1" parent="1">
          <mxGeometry x="230" y="581" width="210" height="60" as="geometry" />
        </mxCell>
        <mxCell id="UMj_73BemHP42ggLhkep-13" value="" style="html=1;shadow=0;dashed=0;align=center;verticalAlign=middle;shape=mxgraph.arrows2.arrow;dy=0.6;dx=40;direction=south;notch=0;fillColor=#f5f5f5;fontColor=#333333;strokeColor=#666666;" vertex="1" parent="1">
          <mxGeometry x="314" y="450" width="34" height="120" as="geometry" />
        </mxCell>
        <mxCell id="UMj_73BemHP42ggLhkep-17" value="" style="html=1;shadow=0;dashed=0;align=center;verticalAlign=middle;shape=mxgraph.arrows2.arrow;dy=0.6;dx=40;direction=south;notch=0;fillColor=#f5f5f5;fontColor=#333333;strokeColor=#666666;" vertex="1" parent="1">
          <mxGeometry x="210" y="660" width="28" height="60" as="geometry" />
        </mxCell>
        <mxCell id="UMj_73BemHP42ggLhkep-18" value="" style="html=1;shadow=0;dashed=0;align=center;verticalAlign=middle;shape=mxgraph.arrows2.arrow;dy=0.6;dx=40;direction=south;notch=0;fillColor=#f5f5f5;fontColor=#333333;strokeColor=#666666;" vertex="1" parent="1">
          <mxGeometry x="360" y="660" width="28" height="60" as="geometry" />
        </mxCell>
        <mxCell id="UMj_73BemHP42ggLhkep-19" value="" style="html=1;shadow=0;dashed=0;align=center;verticalAlign=middle;shape=mxgraph.arrows2.arrow;dy=0.6;dx=40;direction=south;notch=0;fillColor=#f5f5f5;fontColor=#333333;strokeColor=#666666;" vertex="1" parent="1">
          <mxGeometry x="506" y="660" width="28" height="60" as="geometry" />
        </mxCell>
        <mxCell id="UMj_73BemHP42ggLhkep-25" value="" style="html=1;shadow=0;dashed=0;align=center;verticalAlign=middle;shape=mxgraph.arrows2.arrow;dy=0.6;dx=40;direction=south;notch=0;fillColor=#f5f5f5;fontColor=#333333;strokeColor=#666666;" vertex="1" parent="1">
          <mxGeometry x="316" y="804" width="28" height="60" as="geometry" />
        </mxCell>
        <mxCell id="UMj_73BemHP42ggLhkep-26" value="" style="html=1;shadow=0;dashed=0;align=center;verticalAlign=middle;shape=mxgraph.arrows2.jumpInArrow;dy=8.83;dx=38;arrowHead=55;direction=west;flipH=0;flipV=1;fillColor=#dae8fc;strokeColor=#6c8ebf;" vertex="1" parent="1">
          <mxGeometry x="422" y="355" width="99" height="83" as="geometry" />
        </mxCell>
        <mxCell id="UMj_73BemHP42ggLhkep-28" value="" style="html=1;shadow=0;dashed=0;align=center;verticalAlign=middle;shape=mxgraph.arrows2.jumpInArrow;dy=8.83;dx=38;arrowHead=55;direction=south;flipH=0;flipV=1;fillColor=#d5e8d4;strokeColor=#82b366;" vertex="1" parent="1">
          <mxGeometry x="449" y="506" width="100" height="99" as="geometry" />
        </mxCell>
        <mxCell id="UMj_73BemHP42ggLhkep-30" value="展现层" style="text;html=1;align=center;verticalAlign=middle;whiteSpace=wrap;rounded=0;textDirection=vertical-lr;fontSize=18;" vertex="1" parent="1">
          <mxGeometry x="40" y="376" width="60" height="99" as="geometry" />
        </mxCell>
        <mxCell id="UMj_73BemHP42ggLhkep-31" value="计算层" style="text;html=1;align=center;verticalAlign=middle;whiteSpace=wrap;rounded=0;textDirection=vertical-lr;fontSize=18;" vertex="1" parent="1">
          <mxGeometry x="40" y="574" width="60" height="74" as="geometry" />
        </mxCell>
        <mxCell id="UMj_73BemHP42ggLhkep-32" value="存储层" style="text;html=1;align=center;verticalAlign=middle;whiteSpace=wrap;rounded=0;textDirection=vertical-lr;fontSize=18;" vertex="1" parent="1">
          <mxGeometry x="40" y="720" width="60" height="71" as="geometry" />
        </mxCell>
        <mxCell id="UMj_73BemHP42ggLhkep-36" value="数据层" style="text;html=1;align=center;verticalAlign=middle;whiteSpace=wrap;rounded=0;textDirection=vertical-lr;fontSize=18;" vertex="1" parent="1">
          <mxGeometry x="40" y="865.5" width="60" height="71" as="geometry" />
        </mxCell>
        <mxCell id="UMj_73BemHP42ggLhkep-38" value="&lt;font style=&quot;font-size: 22px;&quot;&gt;VTT基础系统架构&lt;/font&gt;" style="text;html=1;align=center;verticalAlign=middle;whiteSpace=wrap;rounded=0;" vertex="1" parent="1">
          <mxGeometry x="221.5" y="270" width="219" height="30" as="geometry" />
        </mxCell>
      </root>
    </mxGraphModel>
  </diagram>
</mxfile>
